<svg aria-hidden="true" style="position: absolute; width: 0; height: 0; overflow: hidden;" version="1.1" xmlns="http://www.w3.org/2000/svg" xmlns:xlink="http://www.w3.org/1999/xlink">
<defs>
<symbol id="icon-map-marker" viewBox="0 0 16 28">
<path d="M12 10c0-2.203-1.797-4-4-4s-4 1.797-4 4 1.797 4 4 4 4-1.797 4-4zM16 10c0 0.953-0.109 1.937-0.516 2.797l-5.688 12.094c-0.328 0.688-1.047 1.109-1.797 1.109s-1.469-0.422-1.781-1.109l-5.703-12.094c-0.406-0.859-0.516-1.844-0.516-2.797 0-4.422 3.578-8 8-8s8 3.578 8 8z"></path>
</symbol>
<symbol id="icon-location" viewBox="0 0 32 32">
<path d="M16 0c-5.523 0-10 4.477-10 10 0 10 10 22 10 22s10-12 10-22c0-5.523-4.477-10-10-10zM16 16c-3.314 0-6-2.686-6-6s2.686-6 6-6 6 2.686 6 6-2.686 6-6 6z"></path>
</symbol>
<symbol id="icon-desktop_windows" viewBox="0 0 24 24">
<path d="M21 15.984v-12h-18v12h18zM21 2.016q0.797 0 1.406 0.586t0.609 1.383v12q0 0.797-0.609 1.406t-1.406 0.609h-6.984v2.016h1.969v1.969h-7.969v-1.969h1.969v-2.016h-6.984q-0.797 0-1.406-0.609t-0.609-1.406v-12q0-0.797 0.609-1.383t1.406-0.586h18z"></path>
</symbol>
<symbol id="icon-angular" viewBox="0 0 32 32">
<path fill="#dd0031" style="fill: var(--color1, #dd0031)" d="M13.24 16.86h5.512l-2.757-6.54zM15.995 0.012l-15.080 5.305 2.3 19.68 12.78 6.991 12.784-6.984 2.299-19.684zM25.405 24.408h-3.515l-1.893-4.668h-8.004l-1.893 4.668h-3.517l9.413-20.864z"></path>
</symbol>
<symbol id="icon-apachenetbeanside" viewBox="0 0 32 32">
<path fill="#1b6ac6" style="fill: var(--color2, #1b6ac6)" d="M15.984 0c-0.003 0.001-0.004 0.002-0.006 0.003l0.001-0c-0.011 0.002-0.022 0.004-0.031 0.008l0.001-0c-0.003 0.001-0.004 0.002-0.006 0.003l0.001-0c-0.003 0.001-0.004 0.002-0.006 0.003l0.001-0-0.017 0.011-13.729 7.917c-0.004 0.002-0.008 0.004-0.011 0.006l0.001-0-0.005 0.003c-0.001 0.001-0.002 0.002-0.003 0.003l-0 0c-0.003 0.001-0.004 0.002-0.006 0.003l0.001-0c-0.001 0.001-0.002 0.002-0.003 0.003l-0 0c-0.003 0.001-0.004 0.002-0.006 0.003l0.001-0c-0.002 0.002-0.004 0.003-0.005 0.005l-0 0c-0.001 0.001-0.002 0.003-0.004 0.005l-0 0c-0.003 0.001-0.004 0.002-0.006 0.003l0.001-0c-0.001 0.001-0.002 0.003-0.002 0.005l-0 0.001c-0.002 0.002-0.004 0.003-0.005 0.005l-0 0c-0.001 0.001-0.002 0.003-0.002 0.005l-0 0.001c-0.001 0.001-0.002 0.003-0.002 0.005l-0 0.001c-0.002 0.002-0.004 0.003-0.005 0.005l-0 0c-0.001 0.001-0.002 0.003-0.002 0.005l-0 0.001c-0.001 0.001-0.002 0.003-0.002 0.005l-0 0.001c-0 0.001-0 0.002-0 0.003s0 0.002 0 0.003v-0c-0.001 0.002-0.002 0.004-0.002 0.007l-0 0.001c-0.001 0.001-0.002 0.003-0.002 0.005l-0 0.001c-0 0.001-0 0.002-0 0.003s0 0.002 0 0.003v-0c-0.001 0.002-0.002 0.004-0.002 0.007l-0 0.001c-0 0.001-0 0.002-0 0.003s0 0.002 0 0.003v-0c-0 0.001-0 0.002-0 0.003s0 0.002 0 0.003v-0c-0 0.001-0 0.003-0 0.004s0 0.003 0 0.004v-0c-0 0.003-0 0.006-0 0.009s0 0.007 0 0.010l-0-0v15.835c-0 0.002-0 0.004-0 0.007s0 0.005 0 0.007v-0 0.005c-0 0.001-0 0.003-0 0.004s0 0.003 0 0.004v-0c-0 0.001-0 0.002-0 0.003s0 0.002 0 0.003v-0c-0 0.001-0 0.002-0 0.003s0 0.002 0 0.003v-0c0.001 0.003 0.002 0.004 0.003 0.006l-0-0.001c-0 0.001-0 0.003-0 0.004s0 0.003 0 0.004v-0c0.001 0.003 0.002 0.004 0.003 0.006l-0-0.001c0.001 0.004 0.002 0.006 0.003 0.009l-0-0.001c0.002 0.004 0.004 0.008 0.006 0.011l-0-0.001c0.001 0.003 0.002 0.004 0.003 0.006l-0-0.001c0.001 0.003 0.002 0.004 0.003 0.006l-0-0.001c0.001 0.003 0.002 0.004 0.003 0.006l-0-0.001c0.002 0.002 0.003 0.004 0.005 0.005l0 0c0.001 0.003 0.002 0.004 0.003 0.006l-0-0.001c0.002 0.002 0.003 0.004 0.005 0.005l0 0c0.001 0.001 0.002 0.002 0.003 0.003l0 0c0.002 0.002 0.003 0.004 0.004 0.006l-0-0c0.001 0.001 0.003 0.002 0.005 0.002l0.001 0c0.002 0.002 0.003 0.004 0.005 0.005l0 0c0.001 0.001 0.003 0.002 0.005 0.002l0.001 0c0.001 0.001 0.003 0.002 0.005 0.002l0.001 0c0.004 0.003 0.010 0.005 0.015 0.008l0.001 0 13.739 7.923c0.001 0.001 0.002 0.002 0.003 0.003l0 0 0.005 0.003c0.005 0.004 0.011 0.007 0.018 0.010l0.001 0c0.001 0 0.001 0 0.002 0s0.001 0 0.002-0h-0c0.001 0.001 0.003 0.002 0.005 0.002l0.001 0c0.001 0.001 0.003 0.002 0.005 0.002l0.001 0c0.001 0 0.003 0 0.004 0s0.003-0 0.004-0h-0c0.001 0 0.002 0 0.003 0s0.002 0 0.003-0h-0c0.002 0.001 0.004 0.002 0.007 0.002l0.001 0c0.001 0 0.002 0 0.003 0s0.002 0 0.003-0h-0c0.008-0 0.016-0.001 0.024-0.003l-0.001 0c0.005-0.001 0.010-0.002 0.014-0.003l-0.001 0c0.007-0.002 0.013-0.005 0.019-0.008l-0.001 0c0.004-0.002 0.008-0.004 0.011-0.006l-0.001 0 0.008-0.005c0.003-0.002 0.006-0.004 0.008-0.006l-0 0 13.72-7.912c0.008-0.003 0.015-0.007 0.022-0.011l-0 0 0.005-0.003c0.003-0.001 0.005-0.002 0.007-0.003l-0.001 0c0.001-0.001 0.002-0.002 0.003-0.003l0-0c0.002-0.002 0.004-0.003 0.005-0.005l0-0c0.003-0.001 0.004-0.002 0.006-0.003l-0.001 0c0.002-0.002 0.004-0.003 0.005-0.005l0-0c0.002-0.002 0.004-0.003 0.005-0.005l0-0c0.001-0.001 0.002-0.002 0.003-0.003l0-0c0.002-0.002 0.004-0.003 0.005-0.005l0-0c0.001-0.001 0.002-0.003 0.002-0.005l0-0.001c0.001-0.001 0.002-0.003 0.002-0.005l0-0.001c0.002-0.002 0.004-0.003 0.005-0.005l0-0c0.001-0.001 0.002-0.003 0.002-0.005l0-0.001c0.001-0.002 0.002-0.004 0.002-0.007l0-0.001c0-0.001 0-0.002 0-0.003s0-0.002-0-0.003v0c0.001-0.001 0.002-0.003 0.002-0.005l0-0.001c0.001-0.001 0.002-0.003 0.002-0.005l0-0.001c0-0.001 0-0.003 0-0.004s-0-0.003-0-0.004v0c0.001-0.001 0.002-0.003 0.002-0.005l0-0.001c0-0.001 0-0.002 0-0.003s0-0.002-0-0.003v0c0-0.001 0-0.003 0-0.004s-0-0.003-0-0.004v0c0-0.001 0-0.002 0-0.003s0-0.002-0-0.003v0-0.008c0-0.002 0-0.003 0-0.005s-0-0.004-0-0.006v0-15.837c0-0.002 0-0.005 0-0.008s-0-0.006-0-0.008l0 0c0-0.001 0-0.003 0-0.004s-0-0.003-0-0.004v0c0-0.001 0-0.002 0-0.003s0-0.002-0-0.003v0c0-0.001 0-0.003 0-0.004s-0-0.003-0-0.004v0c-0.001-0.003-0.002-0.004-0.003-0.006l0 0.001c0-0.001 0-0.002 0-0.003s0-0.002-0-0.003v0c-0.001-0.003-0.002-0.004-0.003-0.006l0 0.001c0-0 0-0.001 0-0.001s0-0.001 0-0.001v0c-0.001-0.003-0.002-0.004-0.003-0.006l0 0.001c-0.002-0.004-0.004-0.008-0.006-0.011l0 0.001c-0.001-0.001-0.002-0.002-0.003-0.003l-0-0c-0.001-0.004-0.002-0.008-0.003-0.012l0 0.001c-0.001-0.001-0.002-0.002-0.003-0.003l-0-0c-0.002-0.002-0.003-0.004-0.005-0.005l-0-0c-0.001-0.003-0.002-0.004-0.003-0.006l0 0.001c-0.002-0.002-0.003-0.004-0.005-0.005l-0-0c-0.001-0.003-0.002-0.004-0.003-0.006l0 0.001c-0.001-0.001-0.003-0.002-0.005-0.002l-0.001-0c-0.002-0.002-0.003-0.004-0.005-0.005l-0-0c-0.001-0.001-0.003-0.002-0.005-0.002l-0.001-0c-0.001-0.001-0.002-0.002-0.003-0.002l-0-0c-0.006-0.005-0.013-0.009-0.021-0.013l-0.001-0-13.731-7.917c-0.002-0.002-0.005-0.003-0.007-0.005l-0.001-0-0.004-0.003c-0.003-0.002-0.006-0.003-0.010-0.005l-0.001-0c-0.001-0.001-0.003-0.001-0.005-0.002l-0.001-0c-0.004-0.002-0.008-0.004-0.012-0.005l-0.001-0c-0.001-0-0.002-0-0.003-0s-0.002 0-0.003 0h0c-0.001-0.001-0.003-0.002-0.005-0.002l-0.001-0c-0.001-0.001-0.004-0.002-0.006-0.002l-0.001-0c-0.001-0-0.002-0-0.003-0s-0.002 0-0.003 0h0c-0.001-0-0.003-0-0.004-0s-0.003 0-0.004 0h0c-0.001-0-0.002-0-0.003-0s-0.002 0-0.003 0h0c-0.001-0-0.002-0-0.003-0s-0.002 0-0.003 0h0c-0.002-0-0.004-0-0.006-0s-0.004 0-0.006 0h0zM15.875 0.341v5.851l-8.308 4.824-5.083-2.955zM16.124 0.341l13.391 7.72-5.083 2.955-8.307-4.824zM16 6.405l8.185 4.753-8.187 4.692-8.184-4.692zM2.36 8.277l5.084 2.955v9.528l-5.084 2.956zM29.64 8.277v15.439l-5.085-2.955v-9.529zM7.692 11.373l8.183 4.692v9.445l-8.183-4.751zM24.308 11.373v9.387l-8.184 4.751v-9.444zM7.567 20.973l8.307 4.827v5.851l-13.392-7.72zM24.433 20.973l5.084 2.957-13.393 7.72v-5.851l4.156-2.413z"></path>
</symbol>
<symbol id="icon-csswizardry" viewBox="0 0 32 32">
<path fill="#f43059" style="fill: var(--color3, #f43059)" d="M0.040 21.904v-20.413c0-0.824 0.667-1.491 1.489-1.491h28.871c0.832 0 1.493 0.667 1.493 1.493v19.68c-0.893-0.547-1.947-0.821-3.143-0.821-1.672 0-2.94 0.4-3.805 1.195-0.867 0.797-1.293 1.771-1.293 2.967 0 1.293 0.44 2.253 1.333 2.867 0.52 0.38 1.48 0.72 2.853 1.016l1.4 0.32c0.84 0.177 1.427 0.4 1.813 0.613 0.373 0.244 0.573 0.583 0.573 1.020 0 0.755-0.387 1.273-1.16 1.531l-0.040 0.021h-2.947c-0.383-0.139-0.68-0.339-0.92-0.6-0.24-0.299-0.4-0.733-0.48-1.351h-2.64c0 0.755 0.137 1.393 0.44 1.973h-2.24c0.253-0.52 0.4-1.097 0.4-1.756 0-1.173-0.4-2.067-1.181-2.688-0.499-0.396-1.253-0.713-2.251-0.956l-2.293-0.536c-0.88-0.187-1.453-0.373-1.733-0.533-0.413-0.24-0.613-0.6-0.613-1.053 0-0.507 0.213-0.907 0.627-1.187 0.44-0.28 1-0.413 1.72-0.413 0.653 0 1.173 0.12 1.613 0.347 0.659 0.341 1 0.92 1.053 1.716h2.667c-0.040-1.395-0.553-2.471-1.533-3.205-0.992-0.733-2.167-1.113-3.56-1.113-1.673 0-2.927 0.4-3.804 1.173-0.853 0.777-1.293 1.773-1.293 2.947 0 1.293 0.44 2.251 1.333 2.867 0.536 0.36 1.493 0.697 2.867 1.013l1.393 0.32c0.813 0.18 1.413 0.38 1.813 0.62 0.373 0.24 0.573 0.573 0.573 1.013 0 0.76-0.4 1.253-1.173 1.533h-2.987c-0.379-0.141-0.693-0.341-0.92-0.62-0.24-0.293-0.413-0.752-0.493-1.352h-2.689c0 0.744 0.14 1.4 0.427 1.973h-2.787c0.44-0.693 0.737-1.493 0.884-2.387h-2.737c-0.187 0.68-0.416 1.197-0.7 1.533-0.347 0.44-0.8 0.72-1.36 0.86h-1.636c-0.6-0.14-1.116-0.477-1.533-1.013-0.619-0.744-0.917-1.859-0.917-3.333 0-1.493 0.307-2.627 0.88-3.44 0.6-0.817 1.373-1.213 2.387-1.213 1 0 1.733 0.28 2.253 0.859 0.28 0.32 0.52 0.8 0.693 1.435h2.773c-0.040-0.824-0.347-1.653-0.915-2.48-1.029-1.467-2.659-2.2-4.885-2.2-1.547 0-2.845 0.48-3.88 1.413zM31.899 26.752v-2.072h-0.688c-0.047-0.796-0.4-1.363-1.044-1.699-0.417-0.219-0.956-0.331-1.591-0.331-0.72 0-1.273 0.147-1.693 0.429-0.416 0.287-0.637 0.691-0.637 1.203 0 0.473 0.221 0.827 0.636 1.060 0.293 0.14 0.867 0.339 1.747 0.539l2.293 0.547c0.4 0.080 0.747 0.2 1.067 0.307z"></path>
</symbol>
<symbol id="icon-eclipseide" viewBox="0 0 32 32">
<path fill="#2c2255" style="fill: var(--color4, #2c2255)" d="M14.811 0.032c-0.365 0.005-0.805 0.016-0.983 0.031-4.859 0.419-9.204 3.295-11.724 7.751-1.148 2.020-1.896 4.406-2.074 6.95l-0.003 0.053c-0.053 0.689-0.027 2.327 0.047 2.944 0.408 3.576 1.804 6.747 4.093 9.287 2.616 2.897 6.115 4.623 9.916 4.884 0.56 0.043 1.391 0.053 1.36 0.016-0.125-0.039-0.277-0.073-0.433-0.097l-0.018-0.002c-2.232-0.44-4.517-1.507-6.369-2.976-1.254-1.011-2.333-2.168-3.231-3.461l-0.036-0.054c-1.678-2.441-2.725-5.432-2.844-8.661l-0.001-0.030c-0.010-0.219-0.016-0.475-0.016-0.733 0-1.774 0.279-3.482 0.796-5.084l-0.033 0.117c1.047-3.363 3.16-6.301 5.967-8.304 1.599-1.171 3.496-2.041 5.552-2.483l0.097-0.017 0.591-0.131zM16.777 0.712c-2.584 0.155-5.036 1.020-7.044 2.488-2.5 1.827-4.408 4.325-5.44 7.128-0.193 0.529-0.376 1.093-0.376 1.172 0 0.016 5.104 0.032 13.747 0.032 11.285 0 13.755-0.011 13.755-0.048 0-0.063-0.204-0.7-0.377-1.171-0.204-0.56-0.768-1.747-1.093-2.296-0.533-0.911-1.213-1.831-1.965-2.656-2.201-2.427-4.791-3.912-7.76-4.445-1.047-0.188-2.4-0.267-3.445-0.204zM31.773 13.293c-0.027 0-6.389 0-14.145 0.005l-14.099 0.011-0.015 0.079c-0.048 0.213-0.179 1.443-0.179 1.657 0 0.037 2.38 0.043 14.329 0.043h14.335v-0.1c0-0.136-0.093-1.056-0.141-1.407-0.027-0.213-0.053-0.288-0.085-0.288zM17.676 16.808c-12.493-0.005-14.308 0-14.324 0.047-0.027 0.053 0.032 0.743 0.1 1.297 0.027 0.209 0.047 0.397 0.047 0.419 0 0.036 2.849 0.047 14.167 0.047h14.165l0.032-0.251c0.057-0.435 0.136-1.293 0.125-1.423l-0.011-0.125zM17.68 20.432c-11.844 0-13.763 0.005-13.763 0.047 0 0.027 0.072 0.277 0.161 0.56 0.63 1.921 1.572 3.581 2.779 5.010l-0.018-0.022c0.376 0.456 1.26 1.381 1.637 1.716 2.091 1.867 4.329 2.955 6.907 3.373 0.807 0.125 1.183 0.151 2.333 0.147 1.213 0 1.731-0.043 2.699-0.236 2.813-0.555 5.219-1.935 7.373-4.227 1.689-1.797 2.808-3.68 3.504-5.881l0.156-0.487z"></path>
</symbol>
<symbol id="icon-googlechrome" viewBox="0 0 32 32">
<path fill="#4285f4" style="fill: var(--color5, #4285f4)" d="M21.619 11.587l8.953-2.239c0.902 1.943 1.428 4.217 1.428 6.615v0c0 8.797-7.241 16.037-16.043 16.037-0.403 0-0.807-0.015-1.209-0.045l6.54-11.129c0.475-0.501 0.873-1.071 1.175-1.695 0.44-0.909 0.697-1.978 0.697-3.106 0-1.175-0.279-2.284-0.774-3.266l0.019 0.042c-0.237-0.462-0.498-0.859-0.797-1.226l0.010 0.013zM17.299 23.020l-2.828 8.909c-8.153-0.803-14.471-7.743-14.471-15.96 0-3.18 0.945-6.289 2.717-8.931l6.445 11.169c0.24 0.719 1.492 3.441 4.089 4.436 1.331 0.509 2.721 0.641 4.047 0.376zM15.964 10.16c-2.675 0.025-5.171 2.059-5.708 4.683-0.070 0.344-0.11 0.739-0.11 1.143 0 1.654 0.673 3.151 1.76 4.233l0 0c1.619 1.581 4.187 2.104 6.312 1.236 1.877-0.768 3.293-2.569 3.588-4.575 0.363-2.475-1.051-5.109-3.327-6.172-0.727-0.346-1.58-0.548-2.48-0.548-0.012 0-0.024 0-0.037 0h0.002zM9.395 13.283l-6.383-6.665c2.952-4.029 7.666-6.615 12.984-6.617h0c6.080 0 11.659 3.456 14.365 8.9h-13.617c-2.415-0.167-4.384 0.693-5.687 1.937-0.702 0.675-1.265 1.489-1.645 2.398l-0.017 0.047z"></path>
</symbol>
<symbol id="icon-html5" viewBox="0 0 32 32">
<path fill="#e34f26" style="fill: var(--color6, #e34f26)" d="M2 0h28l-2.547 28.751-11.484 3.249-11.419-3.251zM11.375 13l-0.309-3.624 13.412 0.004 0.307-3.496-17.568-0.004 0.931 10.68h12.168l-0.435 4.568-3.88 1.072-3.94-1.080-0.251-2.813h-3.479l0.44 5.561 7.229 1.933 7.172-1.924 0.992-10.876z"></path>
</symbol>
<symbol id="icon-java" viewBox="0 0 32 32">
<path fill="#007396" style="fill: var(--color7, #007396)" d="M11.801 24.747c0 0-1.223 0.712 0.871 0.952 2.536 0.291 3.832 0.249 6.625-0.281 0 0 0.736 0.461 1.761 0.861-6.265 2.684-14.177-0.157-9.257-1.532zM11.035 21.244c0 0-1.371 1.015 0.723 1.232 2.709 0.279 4.848 0.303 8.551-0.411 0 0 0.512 0.519 1.316 0.803-7.572 2.215-16.009 0.173-10.589-1.624zM17.488 15.3c1.544 1.777-0.405 3.377-0.405 3.377s3.919-2.024 2.119-4.557c-1.681-2.363-2.971-3.536 4.009-7.584 0-0.001-10.955 2.735-5.723 8.764zM25.773 27.339c0 0 0.905 0.745-0.996 1.321-3.616 1.096-15.051 1.425-18.225 0.044-1.141-0.497 1-1.187 1.672-1.331 0.703-0.152 1.104-0.124 1.104-0.124-1.271-0.895-8.208 1.756-3.524 2.516 12.773 2.071 23.283-0.933 19.969-2.427zM12.389 17.613c0 0-5.816 1.381-2.059 1.883 1.585 0.212 4.748 0.164 7.693-0.083 2.408-0.203 4.824-0.636 4.824-0.636s-0.849 0.363-1.464 0.783c-5.905 1.553-17.315 0.831-14.029-0.757 2.776-1.341 5.035-1.189 5.035-1.189zM22.821 23.445c6.004-3.12 3.228-6.119 1.291-5.713-0.473 0.099-0.687 0.184-0.687 0.184s0.176-0.276 0.513-0.396c3.833-1.348 6.781 3.975-1.237 6.083 0-0.001 0.093-0.083 0.12-0.157zM19.201 0c0 0 3.325 3.325-3.153 8.44-5.195 4.103-1.184 6.443-0.001 9.115-3.032-2.737-5.257-5.144-3.765-7.385 2.192-3.292 8.263-4.887 6.92-10.169zM12.979 31.899c5.763 0.369 14.612-0.204 14.821-2.931 0 0-0.403 1.033-4.763 1.855-4.917 0.925-10.985 0.817-14.583 0.224 0-0.001 0.737 0.609 4.524 0.852z"></path>
</symbol>
<symbol id="icon-javascript" viewBox="0 0 32 32">
<path fill="#f7df1e" style="fill: var(--color8, #f7df1e)" d="M0 0h32v32h-32zM29.379 24.368c-0.233-1.46-1.184-2.687-4.004-3.831-0.981-0.46-2.072-0.78-2.396-1.52-0.121-0.44-0.14-0.68-0.061-0.94 0.2-0.861 1.22-1.12 2.020-0.88 0.52 0.16 1 0.56 1.301 1.2 1.379-0.901 1.379-0.901 2.34-1.5-0.36-0.56-0.539-0.801-0.781-1.040-0.84-0.94-1.959-1.42-3.779-1.379l-0.94 0.119c-0.901 0.22-1.76 0.7-2.28 1.34-1.52 1.721-1.081 4.721 0.759 5.961 1.82 1.36 4.481 1.659 4.821 2.94 0.32 1.56-1.16 2.060-2.621 1.88-1.081-0.24-1.68-0.781-2.34-1.781l-2.44 1.401c0.28 0.64 0.6 0.919 1.080 1.479 2.32 2.341 8.12 2.221 9.161-1.339 0.039-0.12 0.32-0.94 0.099-2.2zM17.401 14.708h-2.997c0 2.584-0.012 5.152-0.012 7.74 0 1.643 0.084 3.151-0.184 3.615-0.44 0.919-1.573 0.801-2.088 0.64-0.528-0.261-0.796-0.621-1.107-1.14-0.084-0.14-0.147-0.261-0.169-0.261l-2.433 1.5c0.407 0.84 1 1.563 1.765 2.023 1.14 0.68 2.672 0.9 4.276 0.54 1.044-0.301 1.944-0.921 2.415-1.881 0.68-1.24 0.536-2.76 0.529-4.461 0.016-2.739 0-5.479 0-8.239z"></path>
</symbol>
<symbol id="icon-nginx" viewBox="0 0 32 32">
<path fill="#269539" style="fill: var(--color9, #269539)" d="M16 0l-13.86 8v16l13.86 8 13.86-8v-16zM24 22.12c0 0.94-0.861 1.72-2.039 1.72-0.841 0-1.801-0.34-2.401-1.080l-8-9.521v8.88c0 0.961-0.76 1.72-1.699 1.72h-0.101c-0.961 0-1.72-0.8-1.72-1.72v-12.239c0-0.94 0.84-1.72 2-1.72 0.861 0 1.84 0.34 2.44 1.080l7.96 9.521v-8.881c0-0.961 0.8-1.72 1.72-1.72h0.1c0.96 0 1.72 0.8 1.72 1.72v12.24z"></path>
</symbol>
<symbol id="icon-postman" viewBox="0 0 32 32">
<path fill="#ff6c37" style="fill: var(--color10, #ff6c37)" d="M18.036 0.132c-8.763-1.124-16.78 5.068-17.904 13.832-1.124 8.763 5.067 16.779 13.831 17.904 8.764 1.124 16.783-5.068 17.904-13.832 1.125-8.763-5.065-16.779-13.831-17.904zM21.331 10.112c-0.309 0.004-0.588 0.131-0.791 0.333v0l-5.937 5.937-1.267-1.267c5.852-5.835 6.907-5.891 7.995-5.004zM14.847 16.593l5.92-5.92c0.151-0.158 0.363-0.256 0.598-0.256 0.457 0 0.827 0.37 0.827 0.827 0 0.254-0.114 0.481-0.294 0.633l-0.001 0.001-6.265 5.5zM15.287 17.519l-1.467 0.317c-0.005 0.001-0.011 0.002-0.018 0.002-0.031 0-0.058-0.018-0.072-0.044l-0-0c-0.007-0.012-0.011-0.025-0.011-0.040 0-0.022 0.009-0.043 0.024-0.057v0l0.86-0.86zM11.549 16.907l1.563-1.563 1.172 1.171-2.639 0.568c-0.007 0.002-0.016 0.003-0.025 0.003-0.039 0-0.072-0.022-0.088-0.055l-0-0.001c-0.010-0.015-0.015-0.033-0.015-0.052 0-0.029 0.013-0.054 0.032-0.072l0-0zM6.688 24.984c-0.052-0.005-0.092-0.048-0.092-0.101 0-0.003 0-0.007 0-0.010l-0 0c0.003-0.024 0.013-0.045 0.029-0.061v0h0.003l1.261-1.261 1.629 1.629zM9.921 23.309c-0.098 0.052-0.164 0.153-0.164 0.27 0 0.025 0.003 0.050 0.009 0.073l-0-0.002 0.271 1.153c0.003 0.012 0.005 0.026 0.005 0.040 0 0.092-0.075 0.167-0.167 0.167-0.047 0-0.089-0.019-0.119-0.050l-0-0h-0.004l-1.637-1.639 5.016-5.011 2.427-0.524 1.165 1.165c-1.673 1.469-3.961 2.935-6.8 4.357zM16.96 18.739h-0.003l-1.119-1.119 6.265-5.5c0.058-0.052 0.11-0.107 0.157-0.167l0.002-0.003c-0.197 1.793-2.705 4.327-5.303 6.788zM21.836 10.125l-0.004-0.003c-0.437-0.439-0.707-1.045-0.707-1.714 0-1.342 1.088-2.429 2.429-2.429 0.594 0 1.138 0.213 1.561 0.567l-0.004-0.003-2.147 2.151c-0.029 0.029-0.047 0.069-0.047 0.113s0.018 0.084 0.047 0.113v0l1.663 1.663c-0.314 0.159-0.685 0.253-1.077 0.253-0.669 0-1.275-0.271-1.713-0.71v0zM25.273 10.125c-0.107 0.106-0.226 0.202-0.353 0.285l-0.009 0.005h-0.001l-1.609-1.609 2.044-2.044c0.881 0.96 0.849 2.443-0.072 3.363zM25.14 8.067c-0.048 0.035-0.079 0.091-0.079 0.154 0 0.020 0.003 0.039 0.008 0.056l-0-0.001c0.036 0.072 0.057 0.156 0.057 0.246 0 0.135-0.048 0.259-0.129 0.355l0.001-0.001c-0.025 0.032-0.040 0.072-0.040 0.116 0 0.059 0.028 0.112 0.071 0.146l0 0c0.031 0.024 0.069 0.039 0.112 0.040h0c0.057-0.001 0.107-0.026 0.141-0.066l0-0c0.133-0.159 0.213-0.365 0.213-0.589 0-0.15-0.036-0.292-0.1-0.417l0.002 0.005c-0.034-0.048-0.089-0.079-0.151-0.079-0.040 0-0.078 0.013-0.108 0.035l0.001-0z"></path>
</symbol>
<symbol id="icon-sass" viewBox="0 0 32 32">
<path fill="#c69" style="fill: var(--color11, #c69)" d="M16 0c8.836 0 16 7.164 16 16s-7.164 16-16 16-16-7.164-16-16 7.164-16 16-16zM12.82 21.331c0.233 0.86 0.208 1.664-0.032 2.389l-0.087 0.24c-0.032 0.081-0.069 0.16-0.104 0.235-0.187 0.387-0.435 0.747-0.74 1.080-0.931 1.012-2.229 1.396-2.787 1.073-0.6-0.349-0.301-1.78 0.779-2.92 1.161-1.224 2.827-2.012 2.827-2.012v-0.004zM26.035 6.849c-0.723-2.844-5.436-3.779-9.896-2.193-2.652 0.943-5.525 2.424-7.591 4.356-2.457 2.295-2.848 4.295-2.687 5.131 0.569 2.948 4.609 4.876 6.271 6.307v0.008c-0.489 0.24-4.075 2.039-4.915 3.9-0.9 1.96 0.14 3.361 0.82 3.54 2.1 0.581 4.26-0.48 5.42-2.199 1.12-1.681 1.021-3.841 0.539-4.901 0.661-0.18 1.44-0.26 2.44-0.139 2.801 0.32 3.361 2.080 3.24 2.8-0.12 0.719-0.697 1.139-0.899 1.259-0.2 0.121-0.26 0.16-0.241 0.241 0.020 0.12 0.121 0.12 0.28 0.1 0.22-0.040 1.461-0.6 1.521-1.961 0.060-1.72-1.581-3.639-4.5-3.6-1.2 0.021-1.961 0.121-2.5 0.341-0.040-0.060-0.081-0.1-0.14-0.14-1.8-1.94-5.14-3.3-5-5.88 0.040-0.94 0.38-3.419 6.4-6.419 4.94-2.461 8.881-1.78 9.561-0.28 0.977 2.139-2.101 6.12-7.241 6.699-1.96 0.22-2.98-0.539-3.241-0.82-0.279-0.3-0.319-0.32-0.419-0.259-0.16 0.080-0.060 0.34 0 0.5 0.16 0.4 0.78 1.1 1.861 1.46 0.939 0.3 3.24 0.479 6-0.6 3.099-1.199 5.519-4.54 4.819-7.34z"></path>
</symbol>
<symbol id="icon-spring" viewBox="0 0 32 32">
<path fill="#6db33f" style="fill: var(--color12, #6db33f)" d="M29.096 1.664c-0.451 1.075-1.021 2.093-1.708 3.029-2.905-2.9-6.916-4.693-11.346-4.693-0.001 0-0.002 0-0.003 0h0c-8.799 0-16.040 7.24-16.040 16.041 0 4.391 1.8 8.593 4.983 11.623l0.592 0.524c2.771 2.345 6.386 3.772 10.333 3.773h0c8.367 0 15.4-6.548 15.996-14.896 0.437-4.087-0.763-9.255-2.808-15.401zM7.263 27.756c-0.259 0.32-0.653 0.507-1.067 0.507-0.756-0.004-1.368-0.617-1.371-1.373v-0c0-0.752 0.62-1.373 1.371-1.373 0.758 0.002 1.372 0.618 1.372 1.376 0 0.328-0.115 0.63-0.307 0.867l0.002-0.003zM29.029 22.953c-3.959 5.272-12.413 3.496-17.833 3.749 0 0-0.963 0.059-1.929 0.216 0 0 0.363-0.153 0.833-0.333 3.804-1.323 5.604-1.58 7.916-2.767 4.355-2.213 8.659-7.057 9.555-12.096-1.659 4.848-6.683 9.013-11.263 10.707-3.137 1.156-8.804 2.28-8.804 2.28l-0.229-0.12c-3.859-1.877-3.975-10.229 3.037-12.925 3.071-1.181 6.009-0.533 9.325-1.323 3.541-0.84 7.637-3.496 9.304-6.959 1.867 5.539 4.113 14.211 0.088 19.571z"></path>
</symbol>
<symbol id="icon-swift" viewBox="0 0 32 32">
<path fill="#fa7343" style="fill: var(--color13, #fa7343)" d="M29.312 21.797c0.075-0.149 0.075-0.299 0.149-0.448 1.795-7.029-2.468-15.253-9.796-19.591 3.216 4.337 4.487 9.496 3.365 14.132-0.075 0.373-0.224 0.823-0.373 1.196-0.237-0.132-0.433-0.255-0.622-0.388l0.022 0.015c0 0-7.252-4.487-15.027-12.337-0.225-0.224 4.187 6.28 9.121 11.44-2.317-1.347-8.897-6.056-13.011-9.871 0.449 0.823 1.123 1.645 1.795 2.468 3.44 4.412 7.927 9.795 13.311 13.907-3.813 2.32-9.123 2.468-14.507 0-1.347-0.597-2.467-1.345-3.739-2.243 2.243 3.515 5.757 6.731 9.945 8.449 5.009 2.169 10.093 2.020 13.757 0h0.076c0.149-0.075 0.299-0.149 0.448-0.299 1.795-0.897 5.309-1.869 7.253 1.869 0.523 1.047 1.495-3.813-2.169-8.3z"></path>
</symbol>
<symbol id="icon-typescript" viewBox="0 0 32 32">
<path fill="#007acc" style="fill: var(--color14, #007acc)" d="M0 16v16h32v-32h-32zM25.788 14.725c0.813 0.203 1.432 0.564 2.001 1.153 0.295 0.315 0.732 0.888 0.767 1.027 0.011 0.040-1.381 0.973-2.224 1.497-0.031 0.020-0.153-0.112-0.289-0.315-0.413-0.6-0.844-0.859-1.504-0.904-0.971-0.067-1.595 0.441-1.589 1.289-0.001 0.015-0.001 0.032-0.001 0.050 0 0.201 0.051 0.391 0.14 0.557l-0.003-0.006c0.213 0.441 0.611 0.707 1.853 1.244 2.292 0.987 3.272 1.636 3.881 2.56 0.68 1.031 0.833 2.677 0.371 3.901-0.507 1.331-1.767 2.235-3.54 2.533-0.548 0.097-1.848 0.083-2.437-0.024-1.285-0.229-2.504-0.864-3.256-1.697-0.295-0.324-0.869-1.173-0.833-1.233 0.015-0.021 0.147-0.103 0.293-0.188 0.144-0.081 0.681-0.392 1.189-0.687l0.92-0.533 0.193 0.285c0.269 0.411 0.857 0.975 1.213 1.163 1.021 0.539 2.423 0.463 3.113-0.157 0.257-0.217 0.419-0.54 0.419-0.9 0-0.021-0.001-0.042-0.002-0.062l0 0.003c0-0.371-0.047-0.533-0.24-0.813-0.248-0.355-0.756-0.653-2.199-1.28-1.651-0.711-2.361-1.152-3.012-1.853-0.392-0.445-0.694-0.981-0.871-1.57l-0.008-0.030c-0.121-0.452-0.152-1.585-0.056-2.041 0.34-1.596 1.544-2.707 3.281-3.037 0.564-0.107 1.875-0.067 2.428 0.071zM18.276 16.061l0.011 1.311h-4.167v11.835h-2.947v-11.835h-4.163v-1.285c0-0.712 0.015-1.307 0.035-1.32 0.016-0.021 2.551-0.032 5.623-0.027l5.593 0.016z"></path>
</symbol>
<symbol id="icon-database" viewBox="0 0 32 32">
<path fill="#007396" style="fill: var(--color7, #007396)" d="M16 0c-8.837 0-16 2.239-16 5v4c0 2.761 7.163 5 16 5s16-2.239 16-5v-4c0-2.761-7.163-5-16-5z"></path>
<path fill="#007396" style="fill: var(--color7, #007396)" d="M16 17c-8.837 0-16-2.239-16-5v6c0 2.761 7.163 5 16 5s16-2.239 16-5v-6c0 2.761-7.163 5-16 5z"></path>
<path fill="#007396" style="fill: var(--color7, #007396)" d="M16 26c-8.837 0-16-2.239-16-5v6c0 2.761 7.163 5 16 5s16-2.239 16-5v-6c0 2.761-7.163 5-16 5z"></path>
</symbol>
<symbol id="icon-visualstudiocode" viewBox="0 0 32 32">
<path fill="#007acc" style="fill: var(--color14, #007acc)" d="M30.867 3.449l-6.587-3.169c-0.253-0.124-0.55-0.197-0.864-0.197-0.55 0-1.049 0.223-1.409 0.584v0l-12.613 11.507-5.493-4.171c-0.221-0.169-0.501-0.271-0.805-0.271-0.346 0-0.661 0.132-0.897 0.348l-1.762 1.602c-0.269 0.245-0.436 0.596-0.436 0.987s0.167 0.741 0.434 0.984l0.001 0.001 4.764 4.347-4.764 4.347c-0.268 0.245-0.435 0.596-0.435 0.985s0.168 0.742 0.435 0.986l0.001 0.001 1.764 1.601c0.236 0.215 0.551 0.347 0.896 0.347 0.304 0 0.584-0.102 0.808-0.273l-0.003 0.002 5.493-4.171 12.613 11.507c0.36 0.361 0.858 0.584 1.408 0.584 0.314 0 0.611-0.073 0.876-0.203l-0.012 0.005 6.589-3.169c0.675-0.331 1.131-1.013 1.131-1.801 0-0.001 0-0.001 0-0.002v0-21.495c0-0 0-0 0-0 0-0.789-0.457-1.472-1.122-1.797l-0.012-0.005zM24.005 23.264l-9.571-7.264 9.571-7.264z"></path>
</symbol>
<symbol id="icon-terminal" viewBox="0 0 32 32">
<path d="M0 2v28h32v-28h-32zM30 28h-28v-24h28v24zM28 6h-24v20h24v-20zM14 16h-2v2h-2v2h-2v-2h2v-2h2v-2h-2v-2h-2v-2h2v2h2v2h2v2zM22 20h-6v-2h6v2z"></path>
</symbol>
<symbol id="icon-folder-upload" viewBox="0 0 32 32">
<path fill="darkgrey" d="M18 8l-4-4h-14v26h32v-22h-14zM16 15l7 7h-5v8h-4v-8h-5l7-7z"></path>
</symbol>
<symbol id="icon-apple" viewBox="0 0 32 32">
<path fill="#999" style="fill: var(--color1, #999)" d="M9.437 31.4c-0.631-0.421-1.191-0.937-1.659-1.533-0.511-0.617-0.984-1.267-1.419-1.939-1.021-1.493-1.82-3.127-2.373-4.848-0.667-2.003-0.991-3.92-0.991-5.796 0-2.093 0.453-3.92 1.336-5.453 0.653-1.2 1.627-2.204 2.8-2.909 1.133-0.707 2.453-1.093 3.787-1.12 0.467 0 0.973 0.067 1.507 0.2 0.387 0.107 0.853 0.28 1.427 0.493 0.733 0.28 1.133 0.453 1.267 0.493 0.427 0.16 0.787 0.227 1.067 0.227 0.213 0 0.52-0.067 0.86-0.173 0.193-0.067 0.56-0.187 1.080-0.413 0.515-0.187 0.923-0.347 1.247-0.467 0.493-0.147 0.971-0.28 1.4-0.347 0.52-0.080 1.036-0.107 1.531-0.067 0.947 0.067 1.813 0.267 2.587 0.56 1.36 0.547 2.457 1.4 3.276 2.613-0.347 0.213-0.667 0.461-0.967 0.733-0.649 0.573-1.2 1.253-1.64 2.007-0.573 1.027-0.867 2.187-0.859 3.36 0.020 1.444 0.387 2.713 1.12 3.813 0.516 0.8 1.205 1.485 2.045 2.048 0.413 0.28 0.776 0.473 1.12 0.6-0.16 0.5-0.336 0.987-0.54 1.467-0.463 1.076-1.013 2.107-1.667 3.080-0.576 0.84-1.029 1.467-1.373 1.88-0.536 0.64-1.053 1.12-1.573 1.463-0.573 0.38-1.247 0.581-1.936 0.581-0.467 0.020-0.933-0.040-1.379-0.169-0.387-0.127-0.768-0.269-1.141-0.431-0.391-0.179-0.795-0.331-1.207-0.453-0.507-0.133-1.027-0.197-1.552-0.196-0.533 0-1.053 0.067-1.547 0.193-0.413 0.117-0.813 0.261-1.209 0.433-0.56 0.233-0.927 0.387-1.14 0.453-0.432 0.128-0.875 0.205-1.32 0.233-0.693 0-1.339-0.2-1.964-0.617zM18.576 6.787c-0.907 0.453-1.768 0.645-2.631 0.581-0.133-0.861 0-1.747 0.36-2.716 0.32-0.827 0.747-1.573 1.333-2.24 0.613-0.693 1.347-1.267 2.173-1.68 0.88-0.453 1.72-0.693 2.52-0.733 0.107 0.907 0 1.8-0.333 2.76-0.304 0.853-0.757 1.64-1.333 2.347-0.58 0.693-1.3 1.267-2.089 1.681z"></path>
</symbol>
<symbol id="icon-windows" viewBox="0 0 32 32">
<path fill="#0078d6" style="fill: var(--color2, #0078d6)" d="M0 4.599l13-1.799v12.601h-13zM14.599 2.599l17.401-2.599v15.2h-17.401zM0 16.8h13v12.601l-13-1.803zM14.599 16.8h17.401v15.2l-17.2-2.401z"></path>
</symbol>
<symbol id="icon-servers" viewBox="0 0 20 20">
<path fill="blue" d="M0 2c0-1.1 0.9-2 2-2h16c1.105 0 2 0.895 2 2v0 2c0 1.105-0.895 2-2 2v0h-16c-1.105 0-2-0.895-2-2v0-2zM0 9c0-1.1 0.9-2 2-2h16c1.105 0 2 0.895 2 2v0 2c0 1.105-0.895 2-2 2v0h-16c-1.105 0-2-0.895-2-2v0-2zM0 16c0-1.1 0.9-2 2-2h16c1.105 0 2 0.895 2 2v0 2c0 1.105-0.895 2-2 2v0h-16c-1.105 0-2-0.895-2-2v0-2zM12 2v2h2v-2h-2zM16 2v2h2v-2h-2zM12 9v2h2v-2h-2zM16 9v2h2v-2h-2zM12 16v2h2v-2h-2zM16 16v2h2v-2h-2z"></path>
</symbol>
<symbol id="icon-plus-circle" viewBox="0 0 24 24">
<path d="M23 12c0-3.037-1.232-5.789-3.222-7.778s-4.741-3.222-7.778-3.222-5.789 1.232-7.778 3.222-3.222 4.741-3.222 7.778 1.232 5.789 3.222 7.778 4.741 3.222 7.778 3.222 5.789-1.232 7.778-3.222 3.222-4.741 3.222-7.778zM21 12c0 2.486-1.006 4.734-2.636 6.364s-3.878 2.636-6.364 2.636-4.734-1.006-6.364-2.636-2.636-3.878-2.636-6.364 1.006-4.734 2.636-6.364 3.878-2.636 6.364-2.636 4.734 1.006 6.364 2.636 2.636 3.878 2.636 6.364zM8 13h3v3c0 0.552 0.448 1 1 1s1-0.448 1-1v-3h3c0.552 0 1-0.448 1-1s-0.448-1-1-1h-3v-3c0-0.552-0.448-1-1-1s-1 0.448-1 1v3h-3c-0.552 0-1 0.448-1 1s0.448 1 1 1z"></path>
</symbol>
<symbol id="icon-zap" viewBox="0 0 24 24">
<path d="M11.585 5.26l-0.577 4.616c0.033 0.716 0.465 1.124 0.992 1.124h6.865l-6.45 7.74 0.577-4.616c-0.033-0.716-0.465-1.124-0.992-1.124h-6.865zM12.232 1.36l-10 12c-0.354 0.424-0.296 1.055 0.128 1.408 0.187 0.157 0.415 0.233 0.64 0.232h7.867l-0.859 6.876c-0.069 0.548 0.32 1.048 0.868 1.116 0.349 0.044 0.678-0.098 0.892-0.352l10-12c0.354-0.424 0.296-1.055-0.128-1.408-0.187-0.157-0.415-0.233-0.64-0.232h-7.867l0.859-6.876c0.069-0.548-0.32-1.048-0.868-1.116-0.349-0.044-0.678 0.098-0.892 0.352z"></path>
</symbol>
<symbol id="icon-person" viewBox="0 0 24 24">
<path d="M12 14.016q2.531 0 5.273 1.102t2.742 2.883v2.016h-16.031v-2.016q0-1.781 2.742-2.883t5.273-1.102zM12 12q-1.641 0-2.813-1.172t-1.172-2.813 1.172-2.836 2.813-1.195 2.813 1.195 1.172 2.836-1.172 2.813-2.813 1.172z"></path>
</symbol>
<symbol id="icon-vpn_key" viewBox="0 0 24 24">
<path d="M6.984 14.016q0.797 0 1.406-0.609t0.609-1.406-0.609-1.406-1.406-0.609-1.383 0.609-0.586 1.406 0.586 1.406 1.383 0.609zM12.656 9.984h10.359v4.031h-2.016v3.984h-3.984v-3.984h-4.359q-0.609 1.641-2.273 2.813t-3.398 1.172q-2.484 0-4.242-1.758t-1.758-4.242 1.758-4.242 4.242-1.758q1.734 0 3.398 1.172t2.273 2.813z"></path>
</symbol>
<symbol id="icon-th-menu" viewBox="0 0 24 24">
<path d="M19 17h-14c-1.103 0-2 0.897-2 2s0.897 2 2 2h14c1.103 0 2-0.897 2-2s-0.897-2-2-2z"></path>
<path d="M19 10h-14c-1.103 0-2 0.897-2 2s0.897 2 2 2h14c1.103 0 2-0.897 2-2s-0.897-2-2-2z"></path>
<path d="M19 3h-14c-1.103 0-2 0.897-2 2s0.897 2 2 2h14c1.103 0 2-0.897 2-2s-0.897-2-2-2z"></path>
</symbol>
<symbol id="icon-list2" viewBox="0 0 32 32">
<path d="M12 2h20v4h-20v-4zM12 14h20v4h-20v-4zM12 26h20v4h-20v-4zM0 4c0-2.209 1.791-4 4-4s4 1.791 4 4c0 2.209-1.791 4-4 4s-4-1.791-4-4zM0 16c0-2.209 1.791-4 4-4s4 1.791 4 4c0 2.209-1.791 4-4 4s-4-1.791-4-4zM0 28c0-2.209 1.791-4 4-4s4 1.791 4 4c0 2.209-1.791 4-4 4s-4-1.791-4-4z"></path>
</symbol>
<symbol id="icon-bar-chart-2" viewBox="0 0 24 24">
<path d="M19 20v-10c0-0.552-0.448-1-1-1s-1 0.448-1 1v10c0 0.552 0.448 1 1 1s1-0.448 1-1zM13 20v-16c0-0.552-0.448-1-1-1s-1 0.448-1 1v16c0 0.552 0.448 1 1 1s1-0.448 1-1zM7 20v-6c0-0.552-0.448-1-1-1s-1 0.448-1 1v6c0 0.552 0.448 1 1 1s1-0.448 1-1z"></path>
</symbol>
<symbol id="icon-add_photo_alternate" viewBox="0 0 24 24">
<path d="M5.016 18.984h12l-4.031-4.969-3 3.984-1.969-3zM15.984 11.016h3v7.969q0 0.797-0.586 1.406t-1.383 0.609h-12q-0.797 0-1.406-0.609t-0.609-1.406v-12q0-0.797 0.609-1.383t1.406-0.586h7.969v3h3v3zM18.984 6.984v3h-1.969v-3h-3v-1.969h3v-3h1.969v3h3v1.969h-3z"></path>
</symbol>
<symbol id="icon-image" viewBox="0 0 32 32">
<path d="M29.996 4c0.001 0.001 0.003 0.002 0.004 0.004v23.993c-0.001 0.001-0.002 0.003-0.004 0.004h-27.993c-0.001-0.001-0.003-0.002-0.004-0.004v-23.993c0.001-0.001 0.002-0.003 0.004-0.004h27.993zM30 2h-28c-1.1 0-2 0.9-2 2v24c0 1.1 0.9 2 2 2h28c1.1 0 2-0.9 2-2v-24c0-1.1-0.9-2-2-2v0z"></path>
<path d="M26 9c0 1.657-1.343 3-3 3s-3-1.343-3-3 1.343-3 3-3 3 1.343 3 3z"></path>
<path d="M28 26h-24v-4l7-12 8 10h2l7-6z"></path>
</symbol>
<symbol id="icon-plus" viewBox="0 0 22 28">
<path d="M22 11.5v3c0 0.828-0.672 1.5-1.5 1.5h-6.5v6.5c0 0.828-0.672 1.5-1.5 1.5h-3c-0.828 0-1.5-0.672-1.5-1.5v-6.5h-6.5c-0.828 0-1.5-0.672-1.5-1.5v-3c0-0.828 0.672-1.5 1.5-1.5h6.5v-6.5c0-0.828 0.672-1.5 1.5-1.5h3c0.828 0 1.5 0.672 1.5 1.5v6.5h6.5c0.828 0 1.5 0.672 1.5 1.5z"></path>
</symbol>
<symbol id="icon-clear" viewBox="0 0 24 24">
<path d="M18.984 6.422l-5.578 5.578 5.578 5.578-1.406 1.406-5.578-5.578-5.578 5.578-1.406-1.406 5.578-5.578-5.578-5.578 1.406-1.406 5.578 5.578 5.578-5.578z"></path>
</symbol>
</defs>
</svg>
